<svg width="159" height="26" viewBox="0 0 159 26" fill="none" xmlns="http://www.w3.org/2000/svg">
<path d="M2.454 25.238C1.95533 25.238 1.57 25.102 1.298 24.83C1.026 24.5353 0.89 24.1273 0.89 23.606V2.628C0.89 2.10666 1.026 1.71 1.298 1.438C1.59267 1.166 1.98933 1.03 2.488 1.03H10.58C13.164 1.03 15.1473 1.66467 16.53 2.934C17.9353 4.20333 18.638 5.98267 18.638 8.272C18.638 10.584 17.9353 12.3747 16.53 13.644C15.1473 14.9133 13.164 15.548 10.58 15.548H4.052V23.606C4.052 24.1273 3.916 24.5353 3.644 24.83C3.39467 25.102 2.998 25.238 2.454 25.238ZM4.052 12.998H10.172C11.94 12.998 13.266 12.6013 14.15 11.808C15.0567 10.992 15.51 9.81333 15.51 8.272C15.51 6.73067 15.0567 5.57467 14.15 4.804C13.266 4.01067 11.94 3.614 10.172 3.614H4.052V12.998ZM23.6604 25.17C23.1844 25.17 22.8104 25.0227 22.5384 24.728C22.2664 24.4333 22.1304 24.0253 22.1304 23.504V9.938C22.1304 9.394 22.2664 8.986 22.5384 8.714C22.8104 8.41933 23.1844 8.272 23.6604 8.272C24.1591 8.272 24.5444 8.41933 24.8164 8.714C25.0884 8.986 25.2244 9.394 25.2244 9.938V23.504C25.2244 24.0253 25.0884 24.4333 24.8164 24.728C24.5671 25.0227 24.1818 25.17 23.6604 25.17ZM23.6604 4.6C23.0484 4.6 22.5611 4.44133 22.1984 4.124C21.8584 3.784 21.6884 3.342 21.6884 2.798C21.6884 2.20867 21.8584 1.76667 22.1984 1.472C22.5611 1.15467 23.0484 0.995999 23.6604 0.995999C24.3178 0.995999 24.8051 1.15467 25.1224 1.472C25.4624 1.76667 25.6324 2.20867 25.6324 2.798C25.6324 3.342 25.4624 3.784 25.1224 4.124C24.8051 4.44133 24.3178 4.6 23.6604 4.6ZM30.7088 25C30.3688 25 30.0968 24.9207 29.8928 24.762C29.6888 24.6033 29.5415 24.3993 29.4508 24.15C29.3828 23.9007 29.3828 23.6287 29.4508 23.334C29.5415 23.0393 29.7115 22.7447 29.9608 22.45L39.3788 10.04V10.822H30.5048C30.1195 10.822 29.8135 10.72 29.5868 10.516C29.3828 10.2893 29.2808 9.99467 29.2808 9.632C29.2808 9.24667 29.3828 8.952 29.5868 8.748C29.8135 8.544 30.1195 8.442 30.5048 8.442H40.8748C41.2601 8.442 41.5661 8.52133 41.7928 8.68C42.0421 8.83867 42.2008 9.04267 42.2688 9.292C42.3595 9.54133 42.3708 9.81333 42.3028 10.108C42.2348 10.38 42.0761 10.652 41.8268 10.924L32.2728 23.47V22.62H41.5888C42.4048 22.62 42.8128 23.0167 42.8128 23.81C42.8128 24.1727 42.6995 24.4673 42.4728 24.694C42.2688 24.898 41.9741 25 41.5888 25H30.7088ZM46.5467 25C46.2067 25 45.9347 24.9207 45.7307 24.762C45.5267 24.6033 45.3794 24.3993 45.2887 24.15C45.2207 23.9007 45.2207 23.6287 45.2887 23.334C45.3794 23.0393 45.5494 22.7447 45.7987 22.45L55.2167 10.04V10.822H46.3427C45.9574 10.822 45.6514 10.72 45.4247 10.516C45.2207 10.2893 45.1187 9.99467 45.1187 9.632C45.1187 9.24667 45.2207 8.952 45.4247 8.748C45.6514 8.544 45.9574 8.442 46.3427 8.442H56.7127C57.098 8.442 57.404 8.52133 57.6307 8.68C57.88 8.83867 58.0387 9.04267 58.1067 9.292C58.1974 9.54133 58.2087 9.81333 58.1407 10.108C58.0727 10.38 57.914 10.652 57.6647 10.924L48.1107 23.47V22.62H57.4267C58.2427 22.62 58.6507 23.0167 58.6507 23.81C58.6507 24.1727 58.5374 24.4673 58.3107 24.694C58.1067 24.898 57.812 25 57.4267 25H46.5467ZM66.9786 25.306C65.8452 25.306 64.8139 25.0793 63.8846 24.626C62.9779 24.1727 62.2639 23.5607 61.7426 22.79C61.2439 22.0193 60.9946 21.158 60.9946 20.206C60.9946 18.982 61.3006 18.0187 61.9126 17.316C62.5246 16.6133 63.5559 16.1147 65.0066 15.82C66.4572 15.5027 68.4066 15.344 70.8546 15.344H72.4526V17.316H70.9226C69.1772 17.316 67.7946 17.3953 66.7746 17.554C65.7772 17.7127 65.0746 17.996 64.6666 18.404C64.2586 18.7893 64.0546 19.3333 64.0546 20.036C64.0546 20.92 64.3606 21.6453 64.9726 22.212C65.6072 22.7787 66.4686 23.062 67.5566 23.062C68.4179 23.062 69.1772 22.858 69.8346 22.45C70.4919 22.0193 71.0132 21.4527 71.3986 20.75C71.7839 20.0247 71.9766 19.1973 71.9766 18.268V14.358C71.9766 13.0207 71.7046 12.0573 71.1606 11.468C70.6166 10.856 69.6986 10.55 68.4066 10.55C67.6586 10.55 66.8879 10.652 66.0946 10.856C65.3012 11.06 64.4739 11.3773 63.6126 11.808C63.2726 11.9667 62.9779 12.0233 62.7286 11.978C62.4792 11.91 62.2752 11.774 62.1166 11.57C61.9806 11.3433 61.9012 11.1053 61.8786 10.856C61.8786 10.584 61.9352 10.3233 62.0486 10.074C62.1846 9.82467 62.4112 9.64333 62.7286 9.53C63.7259 9.03133 64.7119 8.68 65.6866 8.476C66.6839 8.24933 67.6132 8.136 68.4746 8.136C69.9479 8.136 71.1606 8.374 72.1126 8.85C73.0646 9.30333 73.7786 10.0173 74.2546 10.992C74.7306 11.944 74.9686 13.168 74.9686 14.664V23.64C74.9686 24.1613 74.8439 24.558 74.5946 24.83C74.3452 25.102 73.9826 25.238 73.5066 25.238C73.0532 25.238 72.6906 25.102 72.4186 24.83C72.1692 24.558 72.0446 24.1613 72.0446 23.64V21.226H72.3506C72.1692 22.0647 71.8292 22.79 71.3306 23.402C70.8319 24.014 70.2086 24.49 69.4606 24.83C68.7352 25.1473 67.9079 25.306 66.9786 25.306ZM90.5727 25.238C90.1194 25.238 89.7567 25.102 89.4847 24.83C89.2354 24.558 89.1107 24.184 89.1107 23.708V2.39C89.1107 1.86867 89.2354 1.472 89.4847 1.2C89.734 0.927999 90.0627 0.792 90.4707 0.792C90.856 0.792 91.1507 0.859999 91.3547 0.995999C91.5587 1.132 91.7854 1.37 92.0347 1.71L106.451 20.818H105.601V2.322C105.601 1.82333 105.725 1.44933 105.975 1.2C106.247 0.927999 106.621 0.792 107.097 0.792C107.573 0.792 107.935 0.927999 108.185 1.2C108.434 1.44933 108.559 1.82333 108.559 2.322V23.708C108.559 24.184 108.434 24.558 108.185 24.83C107.958 25.102 107.652 25.238 107.267 25.238C106.904 25.238 106.598 25.1587 106.349 25C106.122 24.864 105.884 24.626 105.635 24.286L91.2527 5.178H92.0347V23.708C92.0347 24.184 91.91 24.558 91.6607 24.83C91.4114 25.102 91.0487 25.238 90.5727 25.238ZM121.554 25.306C119.763 25.306 118.222 24.966 116.93 24.286C115.661 23.5833 114.675 22.5973 113.972 21.328C113.269 20.036 112.918 18.5173 112.918 16.772C112.918 15.0493 113.258 13.542 113.938 12.25C114.641 10.958 115.593 9.94933 116.794 9.224C118.018 8.49867 119.412 8.136 120.976 8.136C122.087 8.136 123.084 8.32867 123.968 8.714C124.875 9.07667 125.645 9.60933 126.28 10.312C126.915 11.0147 127.391 11.876 127.708 12.896C128.048 13.8933 128.218 15.0267 128.218 16.296C128.218 16.6587 128.105 16.942 127.878 17.146C127.674 17.3273 127.368 17.418 126.96 17.418H115.332V15.446H126.178L125.6 15.922C125.6 14.7433 125.419 13.746 125.056 12.93C124.716 12.0913 124.206 11.4567 123.526 11.026C122.869 10.5953 122.041 10.38 121.044 10.38C119.956 10.38 119.027 10.6407 118.256 11.162C117.485 11.6607 116.896 12.3747 116.488 13.304C116.08 14.2107 115.876 15.2647 115.876 16.466V16.67C115.876 18.71 116.363 20.2513 117.338 21.294C118.313 22.3367 119.718 22.858 121.554 22.858C122.279 22.858 123.016 22.7673 123.764 22.586C124.535 22.4047 125.271 22.076 125.974 21.6C126.314 21.396 126.62 21.3053 126.892 21.328C127.187 21.328 127.425 21.4187 127.606 21.6C127.787 21.7587 127.901 21.9627 127.946 22.212C127.991 22.4387 127.957 22.688 127.844 22.96C127.731 23.232 127.515 23.47 127.198 23.674C126.45 24.1953 125.555 24.6033 124.512 24.898C123.492 25.17 122.506 25.306 121.554 25.306ZM137.778 25.306C136.758 25.306 135.727 25.1927 134.684 24.966C133.664 24.7167 132.701 24.2973 131.794 23.708C131.545 23.5493 131.363 23.3567 131.25 23.13C131.159 22.8807 131.125 22.6427 131.148 22.416C131.193 22.1667 131.295 21.9513 131.454 21.77C131.613 21.5887 131.805 21.4867 132.032 21.464C132.281 21.4187 132.542 21.4753 132.814 21.634C133.698 22.1327 134.548 22.484 135.364 22.688C136.203 22.892 137.03 22.994 137.846 22.994C139.093 22.994 140.033 22.7673 140.668 22.314C141.303 21.8607 141.62 21.26 141.62 20.512C141.62 19.8773 141.405 19.39 140.974 19.05C140.566 18.6873 139.92 18.4153 139.036 18.234L135.874 17.588C134.469 17.2707 133.403 16.7493 132.678 16.024C131.975 15.276 131.624 14.324 131.624 13.168C131.624 12.148 131.896 11.264 132.44 10.516C133.007 9.74533 133.789 9.156 134.786 8.748C135.783 8.34 136.928 8.136 138.22 8.136C139.217 8.136 140.158 8.272 141.042 8.544C141.949 8.79333 142.765 9.17867 143.49 9.7C143.762 9.85867 143.932 10.0627 144 10.312C144.091 10.5387 144.102 10.7767 144.034 11.026C143.989 11.2527 143.887 11.4453 143.728 11.604C143.569 11.7627 143.365 11.8647 143.116 11.91C142.867 11.9327 142.595 11.8647 142.3 11.706C141.643 11.2527 140.963 10.9353 140.26 10.754C139.58 10.55 138.9 10.448 138.22 10.448C136.996 10.448 136.067 10.686 135.432 11.162C134.82 11.638 134.514 12.2613 134.514 13.032C134.514 13.6213 134.695 14.1087 135.058 14.494C135.443 14.8793 136.044 15.1627 136.86 15.344L140.022 15.99C141.495 16.3073 142.606 16.8173 143.354 17.52C144.102 18.2 144.476 19.1293 144.476 20.308C144.476 21.8493 143.864 23.0733 142.64 23.98C141.439 24.864 139.818 25.306 137.778 25.306ZM155.204 25.306C153.866 25.306 152.744 25.068 151.838 24.592C150.954 24.116 150.285 23.4247 149.832 22.518C149.401 21.6113 149.186 20.5007 149.186 19.186V10.822H147.01C146.602 10.822 146.284 10.72 146.058 10.516C145.831 10.2893 145.718 9.99467 145.718 9.632C145.718 9.24667 145.831 8.952 146.058 8.748C146.284 8.544 146.602 8.442 147.01 8.442H149.186V4.736C149.186 4.21467 149.322 3.82933 149.594 3.58C149.866 3.308 150.251 3.172 150.75 3.172C151.248 3.172 151.622 3.308 151.872 3.58C152.144 3.82933 152.28 4.21467 152.28 4.736V8.442H156.394C156.824 8.442 157.153 8.544 157.38 8.748C157.606 8.952 157.72 9.24667 157.72 9.632C157.72 9.99467 157.606 10.2893 157.38 10.516C157.153 10.72 156.824 10.822 156.394 10.822H152.28V18.914C152.28 20.1607 152.54 21.1013 153.062 21.736C153.583 22.3707 154.444 22.688 155.646 22.688C156.076 22.688 156.439 22.654 156.734 22.586C157.028 22.4953 157.289 22.45 157.516 22.45C157.72 22.4273 157.89 22.4953 158.026 22.654C158.184 22.8127 158.264 23.1073 158.264 23.538C158.264 23.8553 158.207 24.15 158.094 24.422C158.003 24.6713 157.81 24.8413 157.516 24.932C157.244 25.0227 156.881 25.102 156.428 25.17C155.974 25.2607 155.566 25.306 155.204 25.306Z" fill="url(#paint0_linear_133_6091)"/>
<defs>
<linearGradient id="paint0_linear_133_6091" x1="-2" y1="26.3103" x2="155.438" y2="-12.6886" gradientUnits="userSpaceOnUse">
<stop stop-color="#EC6112"/>
<stop offset="1" stop-color="#FF902E"/>
</linearGradient>
</defs>
</svg>
