<svg width="33" height="33" viewBox="0 0 33 33" fill="none" xmlns="http://www.w3.org/2000/svg">
<path d="M25.2691 24.1026V26.4003C25.2691 26.682 25.1607 26.9538 24.9645 27.1643C24.7683 27.3748 24.498 27.5093 24.2048 27.5422L24.0638 27.5503H9.59965C9.27998 27.5503 8.97339 27.4291 8.74735 27.2135C8.5213 26.9978 8.39431 26.7053 8.39431 26.4003V24.1072C8.39431 23.8022 8.5213 23.5097 8.74735 23.294C8.97339 23.0784 9.27998 22.9572 9.59965 22.9572L24.0638 22.9526C24.3834 22.9526 24.69 23.0738 24.9161 23.2894C25.1421 23.5051 25.2691 23.7976 25.2691 24.1026ZM16.8317 4.55029C17.9794 4.55008 19.1032 4.86252 20.0711 5.45087C21.039 6.03922 21.8107 6.87901 22.2955 7.87149L22.3678 8.02904L22.5318 8.01869C23.8556 7.96155 25.1623 8.32231 26.2496 9.04514C27.3369 9.76797 28.1441 10.8126 28.5464 12.0172L28.6224 12.2622C28.9926 13.5661 28.8698 14.9527 28.2756 16.1788C27.6814 17.405 26.6537 18.3924 25.3728 18.9678L25.2679 19.0104V20.6526C25.2679 20.9576 25.1409 21.2501 24.9149 21.4658C24.6888 21.6814 24.3822 21.8026 24.0625 21.8026L9.59845 21.8072C9.30322 21.8072 9.01827 21.7037 8.79765 21.5166C8.57703 21.3294 8.43609 21.0715 8.40155 20.7917L8.39311 20.6572V19.0092L8.24485 18.946C7.50315 18.6054 6.84244 18.1235 6.30345 17.5299C5.76446 16.9364 5.35862 16.2438 5.11096 15.4948L5.03382 15.2384C4.78749 14.3532 4.76637 13.4246 4.97222 12.53C5.17806 11.6354 5.60493 10.8006 6.21726 10.0952C6.8296 9.38984 7.6097 8.83422 8.4926 8.47463C9.3755 8.11503 10.3357 7.96187 11.2932 8.02789L11.3727 7.86459C11.8385 6.91427 12.5678 6.10362 13.4818 5.52043C14.3958 4.93724 15.4597 4.60374 16.5581 4.55604L16.8317 4.55029Z" fill="url(#paint0_linear_256_317)"/>
<defs>
<linearGradient id="paint0_linear_256_317" x1="4.83203" y1="22.2054" x2="29.606" y2="20.3758" gradientUnits="userSpaceOnUse">
<stop stop-color="#EC6112"/>
<stop offset="1" stop-color="#FF902E"/>
</linearGradient>
</defs>
</svg>
