<svg width="33" height="33" viewBox="0 0 33 33" fill="none" xmlns="http://www.w3.org/2000/svg">
<path d="M16.7134 1.75029C16.6822 1.82529 16.5197 2.32529 16.3572 2.84404L16.0509 3.80029H14.8759C13.9634 3.80029 13.7009 3.81904 13.7197 3.87529C13.7384 3.91904 14.1384 4.24404 14.6197 4.59404C15.0947 4.94404 15.4947 5.26279 15.5072 5.30029C15.5197 5.33154 15.3884 5.81279 15.2134 6.35654C14.9009 7.33779 14.8509 7.55029 14.9447 7.55029C14.9697 7.55029 15.3947 7.25029 15.8884 6.89404C16.3822 6.53154 16.8072 6.23779 16.8322 6.23779C16.8572 6.23779 17.2822 6.53154 17.7759 6.89404C18.2697 7.25029 18.6947 7.55029 18.7259 7.55029C18.8134 7.55029 18.7634 7.33779 18.4509 6.35654C18.2759 5.81279 18.1447 5.33154 18.1572 5.30029C18.1697 5.26279 18.5697 4.94404 19.0447 4.59404C19.5259 4.24404 19.9259 3.91904 19.9447 3.87529C19.9634 3.81904 19.7009 3.80029 18.7884 3.80029H17.6134L17.2697 2.72529C17.0822 2.13779 16.8884 1.64404 16.8447 1.62529C16.8072 1.61279 16.7447 1.66904 16.7134 1.75029Z" fill="url(#paint0_linear_256_324)"/>
<path d="M7.50703 5.18778L7.15703 6.26903L5.99453 6.28778C5.12578 6.30028 4.83203 6.32528 4.83203 6.38153C4.83203 6.41903 5.24453 6.75028 5.73828 7.10653C6.23828 7.46278 6.64453 7.77528 6.64453 7.80028C6.64453 7.82528 6.49453 8.31903 6.30703 8.89403C6.11953 9.47528 5.98203 9.97528 6.00078 10.0003C6.03828 10.069 6.16328 9.99403 7.11953 9.29403C7.53828 8.98778 7.90703 8.73778 7.93828 8.73778C7.96328 8.73778 8.39453 9.03153 8.89453 9.39403C9.41328 9.77528 9.81953 10.0253 9.85078 9.99403C9.88203 9.96278 9.75703 9.48153 9.55703 8.85653C9.36953 8.26278 9.23203 7.75653 9.26328 7.73778C10.007 7.22528 11.0195 6.44403 11.0195 6.38153C11.0195 6.31903 10.7883 6.30028 9.87578 6.30028H8.73828L8.37578 5.20653C8.16328 4.57528 7.97578 4.11278 7.93203 4.11278C7.88828 4.11278 7.70703 4.56278 7.50703 5.18778Z" fill="url(#paint1_linear_256_324)"/>
<path d="M25.2883 5.20653L24.9258 6.30028H23.7883C22.8883 6.30028 22.6445 6.31903 22.6445 6.38153C22.6445 6.44403 23.6758 7.23778 24.4008 7.73778C24.432 7.75653 24.2945 8.26278 24.107 8.85653C23.907 9.48153 23.782 9.96278 23.8133 9.99403C23.8445 10.0253 24.2508 9.77528 24.7695 9.39403C25.2695 9.03153 25.7008 8.73778 25.7258 8.73778C25.757 8.73778 26.1258 8.98778 26.5445 9.29403C27.5008 9.99403 27.6258 10.069 27.6633 10.0003C27.682 9.97528 27.5445 9.47528 27.357 8.88778C27.1695 8.30653 27.0195 7.81903 27.0195 7.80028C27.0195 7.77528 27.4258 7.46903 27.9258 7.11278C28.4195 6.75028 28.832 6.41903 28.832 6.38153C28.832 6.32528 28.5383 6.30028 27.6695 6.28778L26.5133 6.26903L26.157 5.18778C25.957 4.57528 25.7758 4.11278 25.732 4.11278C25.6883 4.11278 25.4945 4.58153 25.2883 5.20653Z" fill="url(#paint2_linear_256_324)"/>
<path d="M15.7071 8.61282C11.7884 9.16282 8.78838 12.0003 8.04463 15.8628C7.89463 16.6628 7.89463 18.2253 8.04463 19.0503C8.26963 20.2941 8.84463 21.6566 9.58213 22.6941C10.0759 23.3753 11.1384 24.4066 11.8321 24.8691C13.1634 25.7566 14.5634 26.2441 16.1134 26.3566C18.7321 26.5503 21.1196 25.7066 22.9759 23.9253C24.0634 22.8878 24.8321 21.6878 25.2946 20.2941C25.6321 19.3003 25.7321 18.6191 25.7321 17.4253C25.7259 15.9128 25.4759 14.8253 24.8259 13.5003C23.6196 11.0566 21.3509 9.30657 18.6571 8.73782C17.9634 8.58782 16.3571 8.52532 15.7071 8.61282ZM17.9696 10.7691C19.3384 11.0066 20.4946 11.6066 21.5321 12.6003C24.2759 15.2378 24.3384 19.4878 21.6759 22.2066C18.9946 24.9378 14.7509 24.9691 12.0446 22.2691C10.0009 20.2253 9.45713 17.2066 10.6696 14.6378C11.0321 13.8753 11.3821 13.3691 11.9509 12.7816C12.9884 11.7066 14.2509 11.0253 15.6634 10.7691C16.2634 10.6628 17.3696 10.6566 17.9696 10.7691Z" fill="url(#paint3_linear_256_324)"/>
<path d="M15.9884 11.5315C13.5196 11.9253 11.5821 13.7128 10.9759 16.1628C10.8134 16.8065 10.8321 18.169 11.0071 18.894C11.2946 20.0565 12.0759 21.319 12.9821 22.0628C14.1009 22.9878 15.3384 23.4315 16.8009 23.4378C18.4821 23.4503 19.8884 22.8753 21.0571 21.7128C23.3321 19.4378 23.4134 15.7753 21.2384 13.4378C20.4196 12.5565 19.4259 11.9503 18.3321 11.669C17.8071 11.5378 16.4571 11.4565 15.9884 11.5315ZM18.0571 13.219C18.1321 13.269 18.2446 13.4128 18.3071 13.5378C18.4071 13.7565 18.4071 13.7878 18.2759 14.3628C17.9634 15.7003 17.9259 15.9253 17.9946 16.0378C18.0571 16.1315 18.2196 16.1503 19.3384 16.1753C20.6946 16.2065 20.8634 16.244 20.9321 16.5128C21.0384 16.9315 20.8321 17.2003 20.3321 17.294C20.0509 17.344 20.0509 17.344 20.2384 17.394C20.5634 17.4815 20.7759 17.6128 20.8384 17.7815C20.9634 18.1065 20.7259 18.394 20.2821 18.4628L20.0009 18.5065L20.2259 18.619C20.3509 18.6878 20.4821 18.794 20.5196 18.8565C20.6196 19.0503 20.5946 19.3253 20.4571 19.469C20.3384 19.6003 20.2821 19.6253 19.9259 19.7065L19.7446 19.744L19.9384 19.844C20.2009 19.969 20.3134 20.2378 20.2071 20.4878C20.0571 20.8565 19.9571 20.869 17.9696 20.8503C16.7259 20.8378 16.1259 20.8065 16.0071 20.7565L15.8321 20.6753V18.5065V16.3378L16.1384 15.894C16.4196 15.4878 16.4759 15.3503 16.6946 14.4628C16.8384 13.894 16.9946 13.4253 17.0634 13.3503C17.3196 13.0565 17.7321 13.0065 18.0571 13.219ZM14.7946 16.5878C14.8821 16.669 14.8946 16.9503 14.8946 18.669C14.8946 20.3003 14.8759 20.6753 14.8071 20.7315C14.7509 20.7815 14.5071 20.8003 14.1071 20.7878C13.5196 20.769 13.4884 20.7628 13.4134 20.6128C13.3571 20.5003 13.3321 19.969 13.3321 18.6128C13.3321 16.344 13.2821 16.4878 14.1134 16.4878C14.5634 16.4878 14.7196 16.5128 14.7946 16.5878Z" fill="url(#paint4_linear_256_324)"/>
<path d="M10.3444 25.0628C9.63189 26.2503 8.01314 29.1253 8.04439 29.1566C8.06314 29.1753 8.86939 29.0316 9.83814 28.8378C10.8006 28.6378 11.6006 28.4878 11.6069 28.5003C11.6194 28.5066 11.8819 29.2753 12.1881 30.2003C12.4944 31.1316 12.7694 31.8941 12.8069 31.9003C12.8506 31.9191 15.4944 27.4066 15.5694 27.1878C15.5756 27.1566 15.3631 27.1003 15.1006 27.0566C13.6756 26.8191 11.8944 26.0003 10.6694 25.0128L10.4694 24.8566L10.3444 25.0628Z" fill="url(#paint5_linear_256_324)"/>
<path d="M22.6633 25.2566C21.9945 25.7566 21.2508 26.1816 20.507 26.4816C19.907 26.7316 18.5133 27.1128 18.2258 27.1128C18.1383 27.1128 18.082 27.1378 18.0945 27.1753C18.1695 27.4003 20.8133 31.9191 20.857 31.9003C20.8945 31.8941 21.1695 31.1316 21.4758 30.2003C21.782 29.2753 22.0445 28.5066 22.057 28.5003C22.0633 28.4878 22.8633 28.6378 23.832 28.8316C24.8008 29.0253 25.607 29.1691 25.6258 29.1503C25.657 29.1253 23.3258 25.0253 23.2195 24.9128C23.1945 24.8941 22.9445 25.0441 22.6633 25.2566Z" fill="url(#paint6_linear_256_324)"/>
<defs>
<linearGradient id="paint0_linear_256_324" x1="13.7188" y1="3.00084" x2="20.1459" y2="3.47875" gradientUnits="userSpaceOnUse">
<stop stop-color="#EC6112"/>
<stop offset="1" stop-color="#FF902E"/>
</linearGradient>
<linearGradient id="paint1_linear_256_324" x1="4.83203" y1="5.48568" x2="11.2188" y2="5.95909" gradientUnits="userSpaceOnUse">
<stop stop-color="#EC6112"/>
<stop offset="1" stop-color="#FF902E"/>
</linearGradient>
<linearGradient id="paint2_linear_256_324" x1="22.6445" y1="5.48568" x2="29.0313" y2="5.95909" gradientUnits="userSpaceOnUse">
<stop stop-color="#EC6112"/>
<stop offset="1" stop-color="#FF902E"/>
</linearGradient>
<linearGradient id="paint3_linear_256_324" x1="7.93213" y1="12.7118" x2="26.3144" y2="14.012" gradientUnits="userSpaceOnUse">
<stop stop-color="#EC6112"/>
<stop offset="1" stop-color="#FF902E"/>
</linearGradient>
<linearGradient id="paint4_linear_256_324" x1="10.8643" y1="14.2764" x2="23.2087" y2="15.1514" gradientUnits="userSpaceOnUse">
<stop stop-color="#EC6112"/>
<stop offset="1" stop-color="#FF902E"/>
</linearGradient>
<linearGradient id="paint5_linear_256_324" x1="8.04395" y1="26.4935" x2="15.8102" y2="27.0807" gradientUnits="userSpaceOnUse">
<stop stop-color="#EC6112"/>
<stop offset="1" stop-color="#FF902E"/>
</linearGradient>
<linearGradient id="paint6_linear_256_324" x1="18.0928" y1="26.5354" x2="25.8662" y2="27.1284" gradientUnits="userSpaceOnUse">
<stop stop-color="#EC6112"/>
<stop offset="1" stop-color="#FF902E"/>
</linearGradient>
</defs>
</svg>
