<svg width="27" height="37" viewBox="0 0 27 37" fill="none" xmlns="http://www.w3.org/2000/svg">
<path d="M13.5002 17.6043C12.3122 17.6043 11.1729 17.1324 10.3329 16.2924C9.49291 15.4524 9.021 14.3131 9.021 13.1252C9.021 11.9372 9.49291 10.7979 10.3329 9.95791C11.1729 9.11791 12.3122 8.646 13.5002 8.646C14.6881 8.646 15.8274 9.11791 16.6674 9.95791C17.5074 10.7979 17.9793 11.9372 17.9793 13.1252C17.9793 13.7134 17.8635 14.2958 17.6384 14.8393C17.4133 15.3827 17.0833 15.8765 16.6674 16.2924C16.2515 16.7083 15.7577 17.0383 15.2143 17.2634C14.6708 17.4885 14.0884 17.6043 13.5002 17.6043ZM13.5002 0.583496C10.1739 0.583496 6.98388 1.90485 4.63187 4.25687C2.27985 6.60888 0.958496 9.79891 0.958496 13.1252C0.958496 22.5314 13.5002 36.4168 13.5002 36.4168C13.5002 36.4168 26.0418 22.5314 26.0418 13.1252C26.0418 9.79891 24.7205 6.60888 22.3685 4.25687C20.0164 1.90485 16.8264 0.583496 13.5002 0.583496Z" fill="url(#paint0_linear_133_5925)"/>
<defs>
<linearGradient id="paint0_linear_133_5925" x1="0.958496" y1="28.0897" x2="26.9283" y2="26.8031" gradientUnits="userSpaceOnUse">
<stop stop-color="#EC6112"/>
<stop offset="1" stop-color="#FF902E"/>
</linearGradient>
</defs>
</svg>
