<svg width="43" height="43" viewBox="0 0 43 43" fill="none" xmlns="http://www.w3.org/2000/svg">
<path d="M30.951 32.474L30.1896 31.7125C29.9208 31.4438 29.6001 31.3094 29.2275 31.3094C28.8548 31.3094 28.5335 31.4438 28.2635 31.7125C27.9936 31.9813 27.8592 32.2948 27.8604 32.6531C27.8616 33.0115 27.996 33.325 28.2635 33.5938L30.0104 35.3406C30.2792 35.6094 30.5927 35.7438 30.951 35.7438C31.3094 35.7438 31.6229 35.6094 31.8917 35.3406L36.2365 31.0854C36.5052 30.8167 36.6396 30.4954 36.6396 30.1215C36.6396 29.7476 36.5052 29.4269 36.2365 29.1594C35.9677 28.8918 35.6464 28.7574 35.2725 28.7562C34.8987 28.7551 34.578 28.8894 34.3104 29.1594L30.951 32.474ZM30.4583 16.125C30.966 16.125 31.3918 15.953 31.7358 15.609C32.0798 15.265 32.2512 14.8398 32.25 14.3333C32.2488 13.8269 32.0768 13.4017 31.734 13.0577C31.3912 12.7137 30.966 12.5417 30.4583 12.5417H12.5417C12.034 12.5417 11.6088 12.7137 11.266 13.0577C10.9232 13.4017 10.7512 13.8269 10.75 14.3333C10.7488 14.8398 10.9208 15.2656 11.266 15.6108C11.6112 15.956 12.0364 16.1274 12.5417 16.125H30.4583ZM32.25 41.2083C29.7715 41.2083 27.6592 40.3346 25.9129 38.5871C24.1666 36.8397 23.2929 34.7273 23.2917 32.25C23.2905 29.7727 24.1642 27.6603 25.9129 25.9129C27.6615 24.1654 29.7739 23.2917 32.25 23.2917C34.7261 23.2917 36.8391 24.1654 38.5889 25.9129C40.3388 27.6603 41.2119 29.7727 41.2083 32.25C41.2048 34.7273 40.331 36.8403 38.5871 38.5889C36.8432 40.3376 34.7309 41.2107 32.25 41.2083ZM5.375 39.1927V8.95833C5.375 7.97292 5.72617 7.12964 6.4285 6.4285C7.13083 5.72736 7.97411 5.37619 8.95833 5.375H34.0417C35.0271 5.375 35.871 5.72617 36.5733 6.4285C37.2756 7.13083 37.6262 7.97411 37.625 8.95833V18.8125C37.625 19.3201 37.416 19.731 36.9979 20.0452C36.5799 20.3593 36.117 20.4411 35.6094 20.2906C34.7733 20.0816 33.9222 19.9323 33.0563 19.8427C32.1903 19.7531 31.3243 19.7083 30.4583 19.7083H12.5417C12.034 19.7083 11.6088 19.8803 11.266 20.2243C10.9232 20.5683 10.7512 20.9936 10.75 21.5C10.7488 22.0064 10.9208 22.4323 11.266 22.7775C11.6112 23.1227 12.0364 23.2941 12.5417 23.2917H23.4708C22.9632 23.7993 22.4932 24.3517 22.0608 24.949C21.6284 25.5462 21.2474 26.1882 20.9177 26.875H12.5417C12.034 26.875 11.6088 27.047 11.266 27.391C10.9232 27.735 10.7512 28.1602 10.75 28.6667C10.7488 29.1731 10.9208 29.5989 11.266 29.9441C11.6112 30.2893 12.0364 30.4607 12.5417 30.4583H19.8427C19.783 30.7569 19.746 31.0484 19.7316 31.3327C19.7173 31.6169 19.7095 31.9227 19.7083 32.25C19.7083 33.0264 19.783 33.7878 19.9323 34.5344C20.0816 35.2809 20.2757 36.0274 20.5146 36.774C20.6639 37.1024 20.6042 37.364 20.3354 37.5587C20.0667 37.7534 19.8128 37.7307 19.574 37.4906L19.4396 37.3563C19.2604 37.1771 19.0514 37.0875 18.8125 37.0875C18.5736 37.0875 18.3646 37.1771 18.1854 37.3563L16.7521 38.7896C16.5729 38.9688 16.3639 39.0583 16.125 39.0583C15.8861 39.0583 15.6771 38.9688 15.4979 38.7896L14.0646 37.3563C13.8854 37.1771 13.6764 37.0875 13.4375 37.0875C13.1986 37.0875 12.9896 37.1771 12.8104 37.3563L11.3771 38.7896C11.1979 38.9688 10.9889 39.0583 10.75 39.0583C10.5111 39.0583 10.3021 38.9688 10.1229 38.7896L8.68958 37.3563C8.51042 37.1771 8.30139 37.0875 8.0625 37.0875C7.82361 37.0875 7.61458 37.1771 7.43542 37.3563L6.00208 38.7896L5.375 39.1927Z" fill="url(#paint0_linear_133_5913)"/>
<defs>
<linearGradient id="paint0_linear_133_5913" x1="5.375" y1="32.8812" x2="42.3804" y2="30.2622" gradientUnits="userSpaceOnUse">
<stop stop-color="#EC6112"/>
<stop offset="1" stop-color="#FF902E"/>
</linearGradient>
</defs>
</svg>
