<svg width="33" height="33" viewBox="0 0 33 33" fill="none" xmlns="http://www.w3.org/2000/svg">
<path d="M16.0193 4.86279C12.3943 5.11279 9.15059 7.11279 7.23809 10.269C6.87559 10.8628 6.45684 11.7815 6.25684 12.4003L6.11309 12.8503L5.73809 12.8753C5.48809 12.8878 5.22559 12.9628 4.95684 13.0878C3.83184 13.619 3.11934 14.6128 2.79434 16.0815C2.65059 16.7565 2.65059 18.144 2.79434 18.8315C3.14434 20.4503 3.96309 21.7065 5.00684 22.2253C5.45059 22.444 5.51934 22.4565 6.04434 22.4565C6.43809 22.4503 6.76934 22.4065 7.11309 22.3065C8.00059 22.0565 8.23809 21.8128 8.22559 21.144C8.22559 20.9378 8.05059 19.6315 7.83184 18.2378C7.61934 16.844 7.45059 15.5253 7.45059 15.3065C7.45684 14.3628 7.83809 12.9628 8.40059 11.8315C9.86309 8.86904 12.6943 6.93154 16.0443 6.60654C18.2506 6.39404 20.6256 7.07529 22.4693 8.45654C24.5193 10.0003 25.9256 12.444 26.1943 14.9565C26.2443 15.4003 26.2193 15.669 25.9568 17.394C25.6631 19.3003 25.6568 19.344 25.3756 19.9378C24.0881 22.694 21.6193 24.6315 18.6381 25.2378C18.1381 25.3378 17.7818 25.3628 16.6318 25.3628C15.8068 25.3628 15.1381 25.394 14.9881 25.4315C14.6693 25.519 14.3006 25.8878 14.2131 26.2065C14.1256 26.519 14.1256 27.1315 14.2068 27.4378C14.2881 27.719 14.5256 28.019 14.7943 28.1628C14.9631 28.2565 15.2068 28.269 16.8318 28.269C18.4568 28.269 18.7006 28.2565 18.8693 28.1628C19.2631 27.9503 19.5193 27.5003 19.5193 27.019C19.5193 26.8378 19.5381 26.8253 20.0318 26.6878C21.2193 26.3565 22.6568 25.6128 23.7131 24.7878C24.3568 24.2815 25.3193 23.3065 25.7943 22.669L26.1506 22.1878L26.7568 22.344C27.5443 22.544 28.0256 22.519 28.6068 22.2503C29.5568 21.8065 30.3318 20.7503 30.7318 19.344C31.4131 16.9753 30.7318 14.2878 29.1881 13.294C28.8193 13.0565 28.1756 12.8628 27.7443 12.8628C27.5506 12.8628 27.5256 12.844 27.4881 12.6628C27.4131 12.344 26.9193 11.144 26.6631 10.6878C26.0631 9.58779 25.4256 8.76904 24.4818 7.86904C23.5881 7.01279 22.5068 6.28779 21.4006 5.80654C19.7006 5.05654 17.8693 4.73779 16.0193 4.86279Z" fill="url(#paint0_linear_256_338)"/>
<path d="M15.3692 8.4003C12.6255 8.89405 10.3505 10.8816 9.48798 13.5316C9.08798 14.7441 9.00048 16.3628 9.26298 17.6128C9.51923 18.8378 10.163 20.1691 10.9067 21.0128L11.188 21.3316L10.9442 22.3628C10.6755 23.5316 10.663 23.9003 10.8942 24.1441C11.1692 24.4316 11.4067 24.3753 12.6192 23.7003L13.7005 23.1066L14.2505 23.2941C16.5817 24.0878 19.163 23.7566 21.188 22.4066C22.8442 21.3003 23.9817 19.6128 24.4005 17.6066C24.5692 16.7816 24.588 15.4191 24.438 14.5816C23.863 11.3878 21.413 8.9503 18.2255 8.39405C17.5505 8.2753 16.038 8.28156 15.3692 8.4003ZM20.8317 14.8003V16.4253H21.2067H21.5817V16.9878V17.5503H21.2067H20.8317V18.1753V18.8003H20.0817H19.3317V18.1753V17.5503H18.2067H17.0817V16.9816V16.4128L18.1317 14.8003L19.1755 13.1816H20.0067L20.8317 13.1753V14.8003ZM15.1005 13.3628C15.838 13.6378 16.238 14.2003 16.2317 14.9566C16.2192 15.7253 16.0067 16.0253 14.8692 16.8628C14.4755 17.1566 14.1505 17.4128 14.1442 17.4378C14.1442 17.4691 14.6255 17.4878 15.2067 17.4878H16.2692V18.1441V18.8003H14.1755H12.0817V18.1753V17.5503L13.0442 16.8378C14.4442 15.7941 14.663 15.5503 14.6692 14.9691C14.6755 14.5941 14.513 14.4253 14.1317 14.4253C13.713 14.4253 13.5255 14.6128 13.4317 15.1191L13.3942 15.3441L12.738 15.2128C12.3192 15.1316 12.0817 15.0566 12.0817 15.0066C12.0817 14.8441 12.3442 14.2441 12.5192 14.0003C12.7067 13.7378 13.1005 13.4691 13.5067 13.3253C13.8692 13.1941 14.7067 13.2128 15.1005 13.3628Z" fill="url(#paint1_linear_256_338)"/>
<path d="M18.8008 15.469C18.5258 15.9065 18.2946 16.3003 18.2821 16.344C18.2633 16.4065 18.3883 16.4253 18.7946 16.4253H19.3321V15.5503C19.3321 15.069 19.3258 14.6753 19.3196 14.6753C19.3071 14.6753 19.0758 15.0315 18.8008 15.469Z" fill="url(#paint2_linear_256_338)"/>
<defs>
<linearGradient id="paint0_linear_256_338" x1="2.68652" y1="10.2818" x2="31.8548" y2="12.7757" gradientUnits="userSpaceOnUse">
<stop stop-color="#EC6112"/>
<stop offset="1" stop-color="#FF902E"/>
</linearGradient>
<linearGradient id="paint1_linear_256_338" x1="9.11328" y1="12.0262" x2="25.0498" y2="13.1137" gradientUnits="userSpaceOnUse">
<stop stop-color="#EC6112"/>
<stop offset="1" stop-color="#FF902E"/>
</linearGradient>
<linearGradient id="paint2_linear_256_338" x1="18.2803" y1="15.082" x2="19.3699" y2="15.1283" gradientUnits="userSpaceOnUse">
<stop stop-color="#EC6112"/>
<stop offset="1" stop-color="#FF902E"/>
</linearGradient>
</defs>
</svg>
